<svg width="310" height="33" viewBox="0 0 310 33" fill="none" xmlns="http://www.w3.org/2000/svg">
<path d="M57.5766 31.8452L52.7387 23.658L43.2223 7.44296L38.8629 0.053164L22.1694 20.5213C20.734 22.382 18.5011 23.6048 15.9492 23.6048C11.6429 23.6048 8.13409 20.096 8.13409 15.7897C8.13409 11.4834 11.5366 7.9746 15.896 7.9746C20.2555 7.9746 23.7111 11.4834 23.7111 15.7897C23.7111 16.215 23.658 16.5872 23.6048 17.0125L30.144 9.03788C27.5921 3.72148 22.1694 0 15.8429 0C7.12397 0 0 7.07081 0 15.8429C0 24.5618 7.12397 31.8452 15.8429 31.8452C20.8934 31.8452 25.4124 29.3997 28.2833 25.6251L37.7464 14.0353L43.3818 23.658L43.4882 23.8706H30.8883C30.8883 23.8706 30.8883 23.9238 30.9415 23.977C31.2604 24.9339 32.8022 31.3668 41.0958 31.8452H57.5766Z" fill="#0E90CF"/>
<path d="M86.4984 17.2251C86.4984 18.6074 86.2857 19.8833 85.9136 21.053C85.4883 22.2226 84.9035 23.1795 84.1592 24.0301C83.4149 24.8276 82.4579 25.4656 81.3946 25.944C80.3313 26.3694 79.1086 26.6352 77.8326 26.6352C76.5567 26.6352 75.3339 26.4225 74.2706 25.944C73.2074 25.5187 72.3036 24.8808 71.5061 24.0301C70.7618 23.2327 70.1239 22.2226 69.6985 21.053C69.2732 19.8833 69.0606 18.6074 69.0606 17.2251C69.0606 15.8429 69.2732 14.5669 69.6985 13.3973C70.1239 12.2277 70.7618 11.2708 71.5061 10.4733C72.3036 9.67586 73.2074 9.03789 74.2706 8.61258C75.3339 8.18726 76.5035 7.92144 77.7795 7.92144C79.0554 7.92144 80.225 8.1341 81.2883 8.61258C82.3516 9.03789 83.2554 9.67586 84.0528 10.4733C84.7971 11.2708 85.4351 12.2809 85.8604 13.3973C86.2857 14.5669 86.4984 15.7897 86.4984 17.2251ZM81.3946 17.2251C81.3946 15.6834 81.0756 14.4606 80.4908 13.5568C79.8529 12.653 79.0022 12.2277 77.8326 12.2277C76.663 12.2277 75.8124 12.653 75.1744 13.5568C74.5365 14.4606 74.2175 15.6834 74.2175 17.2251C74.2175 18.7669 74.5365 19.9897 75.1744 20.8935C75.8124 21.7972 76.663 22.2757 77.8326 22.2757C79.0022 22.2757 79.8529 21.7972 80.4908 20.8935C81.0756 19.9897 81.3946 18.7669 81.3946 17.2251Z" fill="#0E90CF"/>
<path d="M89.5289 17.2251C89.5289 15.9492 89.7415 14.7264 90.1668 13.61C90.5921 12.4935 91.1769 11.4834 91.9744 10.6328C92.7719 9.78218 93.7288 9.14421 94.8453 8.61257C95.9617 8.1341 97.2376 7.86827 98.6731 7.86827C99.63 7.86827 100.481 7.9746 101.278 8.13409C102.076 8.29359 102.82 8.55941 103.564 8.87839L102.501 12.8657C102.022 12.7062 101.491 12.5467 100.959 12.3872C100.374 12.2277 99.7895 12.1746 99.0984 12.1746C97.6098 12.1746 96.4933 12.653 95.8022 13.5568C95.0579 14.4606 94.6858 15.6834 94.6858 17.172C94.6858 18.7669 95.0048 19.9897 95.6959 20.8935C96.387 21.7441 97.5566 22.2226 99.2579 22.2226C99.8427 22.2226 100.534 22.1694 101.225 22.0631C101.916 21.9567 102.554 21.7972 103.139 21.5314L103.83 25.6251C103.245 25.8909 102.501 26.1035 101.65 26.263C100.8 26.4225 99.7895 26.5288 98.7794 26.5288C97.1845 26.5288 95.749 26.263 94.5794 25.7845C93.4098 25.3061 92.4529 24.6681 91.7086 23.8175C90.9643 22.9669 90.4326 22.0099 90.0605 20.8935C89.6883 19.777 89.5289 18.5542 89.5289 17.2251Z" fill="#0E90CF"/>
<path d="M105.531 17.3846C105.531 15.7897 105.797 14.4606 106.276 13.2378C106.754 12.0682 107.392 11.0581 108.19 10.3138C108.987 9.51636 109.891 8.93156 110.901 8.50625C111.911 8.08093 112.974 7.92144 114.038 7.92144C116.536 7.92144 118.557 8.66574 119.992 10.2075C121.427 11.7493 122.172 13.9821 122.172 17.0125C122.172 17.2783 122.172 17.6505 122.119 17.9694C122.119 18.3416 122.065 18.6074 122.065 18.8732H110.688C110.795 19.8833 111.273 20.734 112.124 21.3188C112.974 21.9036 114.144 22.2226 115.579 22.2226C116.483 22.2226 117.387 22.1162 118.291 21.9567C119.195 21.7973 119.886 21.5846 120.47 21.3188L121.162 25.4124C120.896 25.5719 120.524 25.6782 120.098 25.8377C119.673 25.9972 119.141 26.1035 118.61 26.2099C118.078 26.3162 117.493 26.3694 116.855 26.4757C116.217 26.5288 115.579 26.582 114.995 26.582C113.4 26.582 112.017 26.3694 110.848 25.8909C109.678 25.4124 108.668 24.7744 107.924 23.977C107.179 23.1795 106.595 22.1694 106.223 21.053C105.691 19.8833 105.531 18.6606 105.531 17.3846ZM117.281 15.4707C117.281 15.0454 117.174 14.6201 117.068 14.248C116.962 13.8226 116.749 13.5037 116.483 13.1847C116.217 12.8657 115.898 12.5999 115.526 12.3872C115.154 12.1746 114.622 12.0682 114.038 12.0682C113.453 12.0682 112.974 12.1746 112.602 12.3341C112.177 12.5467 111.858 12.7594 111.592 13.0784C111.326 13.3973 111.114 13.7695 110.954 14.1948C110.795 14.6201 110.688 15.0454 110.635 15.4707H117.281Z" fill="#0E90CF"/>
<path d="M132.379 7.92144C133.867 7.92144 135.09 8.08093 136.1 8.45308C137.11 8.77207 137.855 9.25054 138.493 9.88851C139.077 10.5265 139.503 11.2708 139.769 12.1746C140.034 13.0784 140.141 14.0885 140.141 15.1517V25.5719C139.396 25.7314 138.439 25.8909 137.163 26.1035C135.888 26.3162 134.346 26.4225 132.538 26.4225C131.369 26.4225 130.359 26.3162 129.402 26.1035C128.445 25.8909 127.647 25.5719 127.009 25.0934C126.318 24.6149 125.84 24.0301 125.467 23.2858C125.095 22.5415 124.936 21.6378 124.936 20.5745C124.936 19.5644 125.148 18.6606 125.574 17.9694C125.999 17.2251 126.531 16.6935 127.222 16.2682C127.913 15.8429 128.71 15.5239 129.614 15.3644C130.518 15.1517 131.422 15.0986 132.432 15.0986C133.07 15.0986 133.655 15.1518 134.186 15.2049C134.665 15.2581 135.09 15.3112 135.409 15.4176V14.9391C135.409 14.0885 135.143 13.3973 134.612 12.8657C134.08 12.3341 133.176 12.0682 131.9 12.0682C131.05 12.0682 130.199 12.1214 129.402 12.2277C128.551 12.3341 127.86 12.5467 127.222 12.7594L126.584 8.7189C126.85 8.61257 127.222 8.55941 127.7 8.45308C128.126 8.34675 128.604 8.24043 129.136 8.18726C129.667 8.1341 130.199 8.02777 130.784 7.97461C131.209 7.92144 131.794 7.92144 132.379 7.92144ZM132.804 22.5947C133.283 22.5947 133.761 22.5947 134.239 22.5415C134.665 22.5415 135.037 22.4884 135.303 22.4352V18.6074C135.09 18.5542 134.824 18.5011 134.399 18.4479C133.974 18.3948 133.602 18.3948 133.283 18.3948C132.804 18.3948 132.379 18.4479 131.953 18.5011C131.528 18.5542 131.156 18.6606 130.837 18.8201C130.518 18.9796 130.252 19.1922 130.093 19.458C129.933 19.7239 129.827 20.0428 129.827 20.4681C129.827 21.2656 130.093 21.7973 130.624 22.1162C131.156 22.4352 131.847 22.5947 132.804 22.5947Z" fill="#0E90CF"/>
<path d="M144.607 8.98473C145.457 8.71891 146.574 8.50625 147.903 8.2936C149.232 8.08094 150.667 7.97461 152.156 7.97461C153.644 7.97461 154.92 8.18727 155.93 8.55942C156.941 8.93156 157.738 9.51637 158.323 10.2075C158.908 10.9518 159.333 11.8024 159.546 12.7594C159.811 13.7695 159.918 14.8328 159.918 16.0555V26.0504H154.92V16.6935C154.92 15.0986 154.708 13.929 154.282 13.2378C153.857 12.5467 153.06 12.2277 151.89 12.2277C151.518 12.2277 151.146 12.2277 150.72 12.2809C150.295 12.3341 149.976 12.3341 149.657 12.3872V26.0504H144.66V8.98473H144.607Z" fill="#0E90CF"/>
<path d="M178.898 7.92144C180.386 7.92144 181.609 8.08093 182.619 8.45308C183.629 8.77207 184.374 9.25054 185.012 9.88851C185.596 10.5265 186.022 11.2708 186.288 12.1746C186.553 13.0784 186.66 14.0885 186.66 15.1517V25.5719C185.915 25.7314 184.958 25.8909 183.682 26.1035C182.407 26.3162 180.865 26.4225 179.057 26.4225C177.888 26.4225 176.877 26.3162 175.921 26.1035C174.964 25.8909 174.166 25.5719 173.528 25.0934C172.837 24.6149 172.359 24.0301 171.986 23.2858C171.614 22.5415 171.455 21.6378 171.455 20.5745C171.455 19.5644 171.667 18.6606 172.093 17.9694C172.518 17.2251 173.05 16.6935 173.741 16.2682C174.432 15.8429 175.229 15.5239 176.133 15.3644C177.037 15.1517 177.941 15.0986 178.951 15.0986C179.589 15.0986 180.174 15.1518 180.705 15.2049C181.184 15.2581 181.609 15.3112 181.928 15.4176V14.9391C181.928 14.0885 181.662 13.3973 181.131 12.8657C180.599 12.3341 179.695 12.0682 178.419 12.0682C177.569 12.0682 176.718 12.1214 175.921 12.2277C175.07 12.3341 174.379 12.5467 173.741 12.7594L173.103 8.7189C173.369 8.61257 173.741 8.55941 174.219 8.45308C174.645 8.34675 175.123 8.24043 175.655 8.18726C176.186 8.1341 176.718 8.02777 177.303 7.97461C177.728 7.92144 178.313 7.92144 178.898 7.92144ZM179.323 22.5947C179.802 22.5947 180.28 22.5947 180.758 22.5415C181.184 22.5415 181.556 22.4884 181.822 22.4352V18.6074C181.609 18.5542 181.343 18.5011 180.918 18.4479C180.493 18.3948 180.12 18.3948 179.802 18.3948C179.323 18.3948 178.898 18.4479 178.472 18.5011C178.047 18.5542 177.675 18.6606 177.356 18.8201C177.037 18.9796 176.771 19.1922 176.612 19.458C176.452 19.7239 176.346 20.0428 176.346 20.4681C176.346 21.2656 176.612 21.7973 177.143 22.1162C177.675 22.4352 178.366 22.5947 179.323 22.5947Z" fill="#0E90CF"/>
<path d="M190.327 17.2251C190.327 15.9492 190.54 14.7264 190.965 13.61C191.39 12.4935 191.975 11.4834 192.773 10.6328C193.57 9.78218 194.527 9.14421 195.644 8.61257C196.76 8.1341 198.036 7.86827 199.471 7.86827C200.428 7.86827 201.279 7.9746 202.076 8.13409C202.874 8.29359 203.618 8.55941 204.362 8.87839L203.299 12.8657C202.821 12.7062 202.289 12.5467 201.757 12.3872C201.173 12.2277 200.588 12.1746 199.897 12.1746C198.408 12.1746 197.292 12.653 196.601 13.5568C195.856 14.4606 195.484 15.6834 195.484 17.172C195.484 18.7669 195.803 19.9897 196.494 20.8935C197.185 21.7441 198.355 22.2226 200.056 22.2226C200.641 22.2226 201.332 22.1694 202.023 22.0631C202.714 21.9567 203.352 21.7972 203.937 21.5314L204.628 25.6251C204.043 25.8909 203.299 26.1035 202.449 26.263C201.598 26.4225 200.588 26.5288 199.578 26.5288C197.983 26.5288 196.547 26.263 195.378 25.7845C194.208 25.3061 193.251 24.6681 192.507 23.8175C191.763 22.9669 191.231 22.0099 190.859 20.8935C190.487 19.777 190.327 18.5542 190.327 17.2251Z" fill="#0E90CF"/>
<path d="M213.507 7.92144C214.996 7.92144 216.218 8.08093 217.229 8.45308C218.239 8.82523 218.983 9.25054 219.621 9.88851C220.206 10.5265 220.631 11.2708 220.897 12.1746C221.163 13.0784 221.269 14.0885 221.269 15.1517V25.5719C220.525 25.7314 219.568 25.8909 218.292 26.1035C217.016 26.3162 215.474 26.4225 213.667 26.4225C212.497 26.4225 211.487 26.3162 210.53 26.1035C209.573 25.8909 208.776 25.5719 208.138 25.0934C207.5 24.6149 206.968 24.0301 206.596 23.2858C206.224 22.5415 206.064 21.6378 206.064 20.5745C206.064 19.5644 206.277 18.6606 206.702 17.9694C207.127 17.2251 207.659 16.6935 208.35 16.2682C209.041 15.8429 209.839 15.5239 210.743 15.3644C211.646 15.1517 212.55 15.0986 213.56 15.0986C214.198 15.0986 214.783 15.1518 215.315 15.2049C215.846 15.2581 216.218 15.3112 216.537 15.4176V14.9391C216.537 14.0885 216.272 13.3973 215.74 12.8657C215.208 12.3341 214.305 12.0682 213.029 12.0682C212.178 12.0682 211.327 12.1214 210.53 12.2277C209.679 12.3341 208.988 12.5467 208.35 12.7594L207.712 8.7189C207.978 8.61257 208.35 8.55941 208.829 8.45308C209.254 8.34675 209.732 8.24043 210.264 8.18726C210.796 8.1341 211.327 8.02777 211.912 7.97461C212.338 7.92144 212.922 7.92144 213.507 7.92144ZM213.932 22.5947C214.411 22.5947 214.889 22.5947 215.368 22.5415C215.793 22.5415 216.165 22.4884 216.431 22.4352V18.6074C216.218 18.5542 215.899 18.5011 215.527 18.4479C215.102 18.3948 214.73 18.3948 214.411 18.3948C213.932 18.3948 213.507 18.4479 213.082 18.5011C212.657 18.5542 212.284 18.6606 211.965 18.8201C211.646 18.9796 211.381 19.1922 211.221 19.458C211.062 19.7239 210.955 20.0428 210.955 20.4681C210.955 21.2656 211.221 21.7973 211.753 22.1162C212.284 22.4352 212.975 22.5947 213.932 22.5947Z" fill="#0E90CF"/>
<path d="M241.365 25.5187C240.939 25.6782 240.408 25.7845 239.823 25.8909C239.238 25.9972 238.653 26.1035 237.962 26.2099C237.271 26.3162 236.686 26.3693 235.995 26.4225C235.357 26.4757 234.719 26.5288 234.081 26.5288C232.646 26.5288 231.317 26.3162 230.2 25.8909C229.031 25.4656 228.074 24.8276 227.329 24.0301C226.532 23.2327 225.947 22.2757 225.522 21.1593C225.097 20.0428 224.884 18.7669 224.884 17.3315C224.884 15.896 225.043 14.6201 225.415 13.4505C225.788 12.2809 226.266 11.3239 226.957 10.5265C227.648 9.72901 228.446 9.09105 229.456 8.66573C230.413 8.24042 231.529 8.02777 232.805 8.02777C233.496 8.02777 234.134 8.08093 234.666 8.24042C235.198 8.39991 235.782 8.55941 236.314 8.82523V0.79746L241.312 0V25.5187H241.365ZM230.041 17.1188C230.041 18.6606 230.413 19.9365 231.104 20.8403C231.795 21.7972 232.858 22.2757 234.188 22.2757C234.613 22.2757 235.038 22.2757 235.41 22.2226C235.782 22.1694 236.101 22.1694 236.367 22.1162V12.972C236.048 12.7594 235.623 12.5999 235.145 12.4404C234.613 12.2809 234.134 12.2277 233.603 12.2277C231.21 12.2809 230.041 13.8758 230.041 17.1188Z" fill="#0E90CF"/>
<path d="M245.247 17.3846C245.247 15.7897 245.512 14.4606 245.991 13.2378C246.469 12.0682 247.107 11.0581 247.905 10.3138C248.702 9.51636 249.606 8.93156 250.616 8.50625C251.626 8.08093 252.69 7.92144 253.753 7.92144C256.252 7.92144 258.272 8.66574 259.707 10.2075C261.143 11.7493 261.887 13.9821 261.887 17.0125C261.887 17.2783 261.887 17.6505 261.834 17.9694C261.834 18.3416 261.781 18.6074 261.781 18.8732H250.404C250.51 19.8833 250.988 20.734 251.839 21.3188C252.69 21.9036 253.859 22.2226 255.295 22.2226C256.198 22.2226 257.102 22.1162 258.006 21.9567C258.91 21.7973 259.601 21.5846 260.186 21.3188L260.877 25.4124C260.611 25.5719 260.239 25.6782 259.814 25.8377C259.388 25.9972 258.857 26.1035 258.325 26.2099C257.793 26.3162 257.208 26.3694 256.571 26.4757C255.933 26.5288 255.295 26.582 254.71 26.582C253.115 26.582 251.733 26.3694 250.563 25.8909C249.393 25.4124 248.383 24.7744 247.639 23.977C246.895 23.1795 246.31 22.1694 245.938 21.053C245.566 19.9365 245.247 18.6606 245.247 17.3846ZM257.049 15.4707C257.049 15.0454 256.943 14.6201 256.836 14.248C256.73 13.8226 256.517 13.5037 256.252 13.1847C255.986 12.8657 255.667 12.5999 255.295 12.3872C254.922 12.1746 254.391 12.0682 253.806 12.0682C253.221 12.0682 252.743 12.1746 252.371 12.3341C251.945 12.5467 251.626 12.7594 251.36 13.0784C251.095 13.3973 250.882 13.7695 250.723 14.1948C250.563 14.6201 250.457 15.0454 250.404 15.4707H257.049Z" fill="#0E90CF"/>
<path d="M275.496 16.6935C275.496 15.0986 275.284 13.929 274.858 13.2378C274.433 12.5467 273.742 12.2277 272.732 12.2277C272.413 12.2277 272.094 12.2277 271.775 12.2809C271.456 12.3341 271.137 12.3341 270.818 12.3872V26.0504H265.82V8.98473C266.246 8.8784 266.724 8.77207 267.309 8.61258C267.894 8.50625 268.479 8.39993 269.117 8.2936C269.755 8.18727 270.393 8.1341 271.084 8.08094C271.775 8.02778 272.413 7.97461 273.051 7.97461C274.327 7.97461 275.39 8.1341 276.187 8.45309C276.985 8.77207 277.623 9.14422 278.154 9.6227C278.899 9.09106 279.696 8.71891 280.653 8.39992C281.61 8.1341 282.461 7.97461 283.205 7.97461C284.64 7.97461 285.757 8.18727 286.714 8.55942C287.618 8.93156 288.362 9.51637 288.894 10.2075C289.425 10.9518 289.797 11.8024 290.01 12.7594C290.223 13.7163 290.329 14.8328 290.329 16.0555V26.0504H285.332V16.6935C285.332 15.0986 285.119 13.929 284.694 13.2378C284.268 12.5467 283.577 12.2277 282.567 12.2277C282.301 12.2277 281.929 12.2809 281.451 12.4404C280.972 12.5999 280.547 12.7594 280.281 12.972C280.441 13.5037 280.547 14.0353 280.6 14.6201C280.653 15.2049 280.653 15.7897 280.653 16.4809V26.1567H275.656V16.6935H275.496Z" fill="#0E90CF"/>
<path d="M310 8.39992C308.99 11.8024 307.927 14.9923 306.81 17.9694C305.694 20.9466 304.524 23.8706 303.195 26.6352C302.717 27.6453 302.238 28.4959 301.76 29.187C301.281 29.8782 300.75 30.463 300.218 30.9415C299.633 31.4199 298.995 31.7389 298.304 31.9516C297.613 32.1642 296.762 32.2706 295.805 32.2706C295.008 32.2706 294.317 32.2174 293.626 32.0579C292.988 31.8984 292.403 31.7389 291.977 31.5794L292.828 27.5921C293.36 27.7516 293.785 27.9111 294.21 27.9643C294.636 28.0174 295.061 28.0706 295.486 28.0706C296.39 28.0706 297.081 27.8048 297.56 27.3263C298.038 26.8478 298.463 26.1567 298.782 25.3061C297.613 23.0732 296.496 20.5213 295.327 17.7568C294.157 14.9391 293.094 11.8024 292.084 8.34676H297.4C297.613 9.19738 297.879 10.1543 298.198 11.2176C298.517 12.2277 298.836 13.291 299.155 14.3011C299.474 15.3644 299.846 16.3745 300.165 17.3315C300.537 18.3416 300.856 19.1922 301.175 20.0428C301.441 19.2454 301.76 18.3416 302.079 17.3315C302.398 16.3214 302.717 15.3112 302.982 14.3011C303.301 13.2378 303.567 12.2277 303.886 11.2176C304.152 10.2075 304.418 9.25054 304.631 8.34676H310V8.39992Z" fill="#0E90CF"/>
</svg>
